<?xml version="1.0" encoding="UTF-8"?>
<svg id="Lager_1" data-name="Lager 1" xmlns="http://www.w3.org/2000/svg" viewBox="0 0 512 512">
  <defs>
    <style>
      .cls-1 {
        fill: #049669;
      }

      .cls-2 {
        fill: #23272f;
      }
    </style>
  </defs>
  <circle class="cls-1" cx="256" cy="256" r="256"/>
  <path class="cls-2" d="M309.89,396.85c-16.09,0-30.61-3.57-43.58-10.7-12.97-7.13-23.22-16.99-30.74-29.57-7.53-12.58-11.28-27.04-11.28-43.38v-119.06c0-4.15-1.04-7.91-3.11-11.28-2.08-3.37-4.8-6.09-8.17-8.17-3.37-2.07-7.14-3.11-11.28-3.11s-7.92,1.04-11.28,3.11c-3.37,2.08-6.03,4.8-7.98,8.17-1.95,3.37-2.92,7.14-2.92,11.28v198.05h-64.2v-192.99c0-16.34,3.76-30.8,11.28-43.38,7.52-12.58,17.83-22.5,30.93-29.77,13.1-7.26,27.82-10.89,44.16-10.89s31.06,3.64,44.16,10.89c13.1,7.27,23.41,17.19,30.93,29.77,7.52,12.58,11.28,27.04,11.28,43.38v118.68c0,4.15.97,7.98,2.92,11.48s4.6,6.29,7.98,8.37c3.37,2.08,7,3.11,10.89,3.11,4.15,0,7.91-1.03,11.28-3.11,3.37-2.07,6.16-4.86,8.37-8.37,2.2-3.5,3.31-7.33,3.31-11.48V119.82h63.81v193.38c0,16.34-3.76,30.81-11.28,43.38-7.53,12.58-17.84,22.44-30.93,29.57-13.1,7.13-27.95,10.7-44.55,10.7Z"/>
</svg>