<svg width="640" height="640" viewBox="0 0 640 640" xmlns="http://www.w3.org/2000/svg">
  <defs>
    <linearGradient id="labGradient" x1="0%" y1="0%" x2="100%" y2="0%">
      <stop offset="0%" stop-color="#38bdf8"/>
      <stop offset="60%" stop-color="#c084fc"/>
      <stop offset="100%" stop-color="#fb7185"/>
    </linearGradient>
    <radialGradient id="labGlow" cx="50%" cy="40%" r="50%">
      <stop offset="0%" stop-color="#ffffff" stop-opacity="0.9"/>
      <stop offset="100%" stop-color="#a5b4fc" stop-opacity="0"/>
    </radialGradient>
    <filter id="softBlur" x="-20%" y="-20%" width="140%" height="140%">
      <feGaussianBlur stdDeviation="18"/>
    </filter>
  </defs>
  <rect width="640" height="640" rx="48" fill="#050b1a"/>
  <g opacity="0.3">
    <circle cx="160" cy="160" r="130" fill="#c084fc" filter="url(#softBlur)"/>
    <circle cx="540" cy="420" r="180" fill="#38bdf8" filter="url(#softBlur)"/>
  </g>
  <circle cx="320" cy="260" r="200" fill="url(#labGlow)" opacity="0.6"/>
  <rect x="100" y="420" width="440" height="80" rx="32" fill="url(#labGradient)" opacity="0.8"/>
  <rect x="160" y="180" width="320" height="220" rx="40" fill="#0f172a" stroke="rgba(255,255,255,0.25)" stroke-width="3"/>
  <path d="M200 260 C240 200 400 200 440 260" fill="none" stroke="#38bdf8" stroke-width="6" stroke-linecap="round"/>
  <path d="M200 320 C240 380 400 380 440 320" fill="none" stroke="#fb7185" stroke-width="6" stroke-linecap="round"/>
  <circle cx="320" cy="260" r="38" fill="none" stroke="#facc15" stroke-width="4" stroke-dasharray="12 8"/>
  <circle cx="320" cy="320" r="28" fill="#14b8a6" opacity="0.8"/>
  <circle cx="320" cy="320" r="12" fill="#f8fafc"/>
  <rect x="250" y="470" width="140" height="20" rx="10" fill="#fff" opacity="0.5"/>
</svg>
