<?xml version="1.0" encoding="UTF-8"?>
<svg id="Lager_1" data-name="Lager 1" xmlns="http://www.w3.org/2000/svg" viewBox="0 0 399.32 411.97">
  <defs>
    <style>
      .cls-1 {
        fill: none;
        stroke: #1d1d1b;
        stroke-miterlimit: 10;
        stroke-width: 70.63px;
      }
    </style>
  </defs>
  <path class="cls-1" d="M35.31,411.96V116.23c0-15.49,3.58-29.27,10.74-41.34,7.16-12.06,16.97-21.62,29.43-28.69,12.45-7.06,26.43-10.59,41.93-10.59s29.47,3.54,41.93,10.59c12.45,7.07,22.31,16.63,29.57,28.69,7.26,12.07,10.89,25.85,10.89,41.34v179.79c0,15.5,3.58,29.33,10.74,41.49,7.16,12.17,16.92,21.73,29.28,28.69,12.35,6.97,26.09,10.45,41.2,10.45s29.77-3.48,42.23-10.45c12.45-6.96,22.36-16.52,29.72-28.69,7.35-12.16,11.03-25.99,11.03-41.49V0"/>
</svg>