<?xml version="1.0" encoding="UTF-8"?>
<svg id="Lager_1" data-name="Lager 1" xmlns="http://www.w3.org/2000/svg" viewBox="0 0 1968.12 356">
  <defs>
    <style>
      .cls-1 {
        fill: #039769;
      }

      .cls-2 {
        fill: #23272f;
      }
    </style>
  </defs>
  <path class="cls-2" d="M371.85,355.72V5.72h160c23.66,0,45.16,5.17,64.5,15.5,19.33,10.34,34.83,24.67,46.5,43,11.66,18.34,17.5,39.67,17.5,64,0,22-5.25,42-15.75,60-9.8,16.79-22.71,30.4-38.74,40.81-1.94,1.26-2.54,3.83-1.37,5.82l25.86,43.87c1.66,2.34,3.58,4.17,5.75,5.5,2.16,1.34,5.08,2,8.75,2h30.5v69.5h-48.5c-15,0-28.67-3.58-41-10.75-12.34-7.16-22-16.58-29-28.25l-37.5-66.5h-63.5v105.5h-84ZM455.85,180.72h66.5c10,0,19.08-2,27.25-6,8.16-4,14.66-10.08,19.5-18.25,4.83-8.16,7.25-17.58,7.25-28.25s-2.5-20.41-7.5-28.25c-5-7.83-11.59-13.75-19.75-17.75-8.17-4-17.09-6-26.75-6h-66.5v104.5Z"/>
  <path class="cls-2" d="M675.35,355.72V5.72h128c37.33,0,69.58,7.5,96.75,22.5,27.16,15,48.33,35.67,63.5,62,15.16,26.34,22.75,56.5,22.75,90.5s-7.59,64.17-22.75,90.5c-15.17,26.34-36.34,47-63.5,62-27.17,15-59.42,22.5-96.75,22.5h-128ZM759.35,277.96c0,4.01,3.25,7.26,7.26,7.26h35.24c19.33,0,36.5-4.16,51.5-12.5,15-8.33,26.91-20.33,35.75-36,8.83-15.66,13.25-34.33,13.25-56s-4.34-40.75-13-56.25c-8.67-15.5-20.59-27.41-35.75-35.75-15.17-8.33-32.42-12.5-51.75-12.5h-35.24c-4.01,0-7.26,3.25-7.26,7.26v194.49Z"/>
  <path class="cls-2" d="M1596.62,356l113-309c6-15.66,15.5-27.41,28.5-35.25,13-7.83,27.66-11.75,44-11.75s31.08,3.75,44.25,11.25c13.16,7.5,22.58,19.25,28.25,35.25l113.5,309.5h-90.5l-22-67.5h-148.5l-23,67.5h-87.5ZM1729.12,219.5h105l-44.5-140.5c-.67-1.66-1.59-2.91-2.75-3.75-1.17-.83-2.59-1.25-4.25-1.25s-3.09.5-4.25,1.5c-1.17,1-1.92,2.17-2.25,3.5l-47,140.5Z"/>
  <path class="cls-2" d="M175,89.72c50.18,0,91,40.82,91,91s-40.82,91-91,91-91-40.82-91-91,40.82-91,91-91M175,5.72C78.35,5.72,0,84.07,0,180.72s78.35,175,175,175,175-78.35,175-175S271.65,5.72,175,5.72h0Z"/>
  <path class="cls-2" d="M1092.35,355.72c-19.67,0-37.5-4.58-53.5-13.75-16-9.16-28.75-21.5-38.25-37s-14.25-33.08-14.25-52.75c0-14.66,3.16-28.41,9.5-41.25,6.33-12.83,15.16-23.91,26.5-33.25-10.34-9-18.67-19.75-25-32.25-6.34-12.5-9.5-25.41-9.5-38.75,0-19.33,4.58-36.58,13.75-51.75,9.16-15.16,21.66-27.16,37.5-36,15.83-8.83,33.08-13.25,51.75-13.25h148v70h-134.5c-6.34,0-12.17,1.5-17.5,4.5-5.34,3-9.59,7-12.75,12-3.17,5-4.75,11-4.75,18,0,6,1.58,11.5,4.75,16.5,3.16,5,7.41,9,12.75,12,5.33,3,11.16,4.5,17.5,4.5h117.5v70.5h-115.5c-6.67,0-12.92,1.59-18.75,4.75-5.84,3.17-10.34,7.42-13.5,12.75-3.17,5.34-4.75,11.5-4.75,18.5s1.66,12.75,5,18.25c3.33,5.5,7.83,9.75,13.5,12.75,5.66,3,12,4.5,19,4.5h132v70.5h-146.5Z"/>
  <path class="cls-1" d="M1573.48,6l-107.16,166.69c-3.25,5.06-3.25,11.56,0,16.62l107.16,166.69h-78.11c-5.23,0-10.1-2.66-12.92-7.05l-51.99-80.79c-6.06-9.42-19.84-9.4-25.88.04l-51.56,80.71c-2.82,4.42-7.71,7.09-12.95,7.09h-78.08l155.5-242.5,64.96-100.47c2.83-4.38,7.69-7.02,12.91-7.02h78.13ZM1400.89,113.5h-64.95c-3.09,0-5.96-1.57-7.63-4.17l-57.36-89.37c-3.87-6.03.46-13.96,7.63-13.96h64.95c3.09,0,5.96,1.57,7.63,4.17l57.36,89.37c3.87,6.03-.46,13.96-7.63,13.96Z"/>
</svg>