<svg width="640" height="640" viewBox="0 0 640 640" xmlns="http://www.w3.org/2000/svg">
  <defs>
    <linearGradient id="forgeFlame" x1="0%" y1="0%" x2="0%" y2="100%">
      <stop offset="0%" stop-color="#f97316"/>
      <stop offset="50%" stop-color="#fb7185"/>
      <stop offset="100%" stop-color="#a855f7"/>
    </linearGradient>
    <radialGradient id="forgeSky" cx="50%" cy="25%" r="60%">
      <stop offset="0%" stop-color="#f8fafc" stop-opacity="0.8"/>
      <stop offset="100%" stop-color="#0f172a" stop-opacity="0"/>
    </radialGradient>
    <filter id="forgeBlur" x="-20%" y="-20%" width="140%" height="140%">
      <feGaussianBlur stdDeviation="20"/>
    </filter>
  </defs>
  <rect width="640" height="640" rx="48" fill="#020617"/>
  <circle cx="320" cy="200" r="220" fill="url(#forgeSky)" opacity="0.6"/>
  <g opacity="0.35">
    <circle cx="150" cy="250" r="140" fill="#fb7185" filter="url(#forgeBlur)"/>
    <circle cx="500" cy="420" r="180" fill="#f97316" filter="url(#forgeBlur)"/>
  </g>
  <path d="M220 520 C230 360 260 200 320 160 C380 120 410 240 420 360 C430 480 470 560 470 560 L170 560 Z" fill="url(#forgeFlame)" opacity="0.95"/>
  <path d="M260 520 Q320 260 380 520" fill="none" stroke="#fff" stroke-opacity="0.35" stroke-width="6" stroke-linecap="round" stroke-dasharray="20 18"/>
  <circle cx="320" cy="160" r="36" fill="#f8fafc" opacity="0.8"/>
  <circle cx="320" cy="160" r="20" fill="#f97316"/>
  <rect x="160" y="520" width="320" height="32" rx="16" fill="#0f172a" stroke="rgba(255,255,255,0.2)" stroke-width="2"/>
  <rect x="210" y="540" width="220" height="16" rx="8" fill="#f8fafc" opacity="0.6"/>
</svg>
