<?xml version="1.0" encoding="UTF-8"?>
<svg version="1.1" xmlns="http://www.w3.org/2000/svg" width="500" height="200">
<path d="M0 0 C165 0 330 0 500 0 C500 66 500 132 500 200 C335 200 170 200 0 200 C0 134 0 68 0 0 Z " fill="#FEFEFE" transform="translate(0,0)"/>
<path d="M0 0 C6.909375 -0.0825 13.81875 -0.165 20.9375 -0.25 C23.10046631 -0.28641602 25.26343262 -0.32283203 27.49194336 -0.36035156 C29.2329001 -0.3720491 30.97386791 -0.38223839 32.71484375 -0.390625 C33.59724731 -0.41108887 34.47965088 -0.43155273 35.38879395 -0.45263672 C43.90858075 -0.45736009 51.14935679 2.33535598 57.42578125 8.1875 C62.83418095 14.41454084 64.8134207 20.85612559 64.4140625 29.04296875 C63.27841044 37.15323864 60.30928168 42.02682928 54.3671875 47.484375 C52.73799627 48.97868527 52.73799627 48.97868527 52.8125 51.5625 C54.27957721 54.57386902 56.10155412 57.24419146 58 60 C58 60.66 58 61.32 58 62 C60.97 62 63.94 62 67 62 C67 41.54 67 21.08 67 0 C76.1265625 -0.0928125 76.1265625 -0.0928125 85.4375 -0.1875 C87.33943115 -0.21481201 89.2413623 -0.24212402 91.20092773 -0.27026367 C92.73680998 -0.27903924 94.2726993 -0.28668063 95.80859375 -0.29296875 C96.58303833 -0.30831665 97.35748291 -0.32366455 98.15539551 -0.33947754 C108.43623555 -0.34431558 118.10952201 3.75258729 125.7890625 10.59375 C134.598689 20.17139522 136.57743957 30.81172847 136.3359375 43.37109375 C135.8173494 53.89500358 130.66629568 62.03454105 123 69 C113.89943393 76.44083168 102.7569376 77.46940012 91.39453125 77.50390625 C90.23048264 77.51389145 89.06643402 77.52387665 87.86711121 77.53416443 C85.42422002 77.54925456 82.98126782 77.55639307 80.53833008 77.5559082 C76.81163352 77.56250153 73.08755853 77.61717314 69.36132812 77.67382812 C66.97657153 77.68262604 64.5918024 77.68858303 62.20703125 77.69140625 C61.10164505 77.7129628 59.99625885 77.73451935 58.8573761 77.75672913 C52.43094637 77.69996878 48.5294408 76.82827246 43.54133606 72.68377686 C40.84653239 69.73993601 39.44856341 66.31061428 37.875 62.6875 C36.50533926 59.86696214 35.14642354 57.30317235 33 55 C27.86206151 53.24013348 24.53034999 53.57045825 19 54 C19 61.92 19 69.84 19 78 C12.73 78 6.46 78 0 78 C0 52.26 0 26.52 0 0 Z " fill="#252525" transform="translate(126,60)"/>
<path d="M0 0 C8.44848606 6.03237696 15.32971837 15.00966302 17.08984375 25.4921875 C17.74515628 38.7203568 16.56679137 50.09514267 8.21875 60.91796875 C0.65318225 69.17762529 -9.34893591 73.99193323 -20.51171875 74.73046875 C-33.65902915 75.09413164 -43.71644913 72.27059961 -53.91015625 63.4921875 C-63.63651287 53.24290848 -65.40120433 41.738847 -65.18359375 28.2109375 C-64.80303437 18.62536273 -60.50388816 11.31416398 -53.91015625 4.4921875 C-38.9698056 -8.81735023 -17.05546386 -10.4244969 0 0 Z " fill="#242424" transform="translate(107.91015625,64.5078125)"/>
<path d="M0 0 C7.05510222 3.93947321 11.50184464 9.25034507 13.83984375 17.02734375 C14.72211418 24.11955634 14.50083304 31.3311671 14.46484375 38.46484375 C14.4609948 41.3628643 14.46439342 44.26026783 14.48544312 47.15821838 C14.49753092 48.95223779 14.49486518 50.74643185 14.47573853 52.54039001 C14.47939423 53.34875809 14.48304993 54.15712616 14.48681641 54.98999023 C14.48283844 55.69929184 14.47886047 56.40859344 14.47476196 57.13938904 C14.95616134 59.62885923 15.81550606 60.53679041 17.83984375 62.02734375 C21.67250667 61.88644291 21.67250667 61.88644291 24.83984375 60.02734375 C24.96335033 58.12574263 25.01777818 56.21961985 25.04516602 54.31420898 C25.06511124 53.09301865 25.08505646 51.87182831 25.10560608 50.6136322 C25.12259166 49.27106862 25.13947042 47.92850368 25.15625 46.5859375 C25.17681322 45.21972514 25.19780952 43.85351924 25.21922302 42.48731995 C25.2745091 38.88539851 25.32388938 35.28341904 25.37207031 31.68139648 C25.42223778 28.00824803 25.4779486 24.3351842 25.53320312 20.66210938 C25.6408646 13.45059038 25.74177959 6.2390008 25.83984375 -0.97265625 C32.10984375 -0.97265625 38.37984375 -0.97265625 44.83984375 -0.97265625 C44.93062722 6.67759655 45.0038359 14.32764529 45.04709244 21.97830772 C45.06786564 25.53180514 45.09599148 29.08491129 45.14160156 32.63818359 C45.19384096 36.73408518 45.21287359 40.82958317 45.23046875 44.92578125 C45.25111389 46.18659515 45.27175903 47.44740906 45.29302979 48.74642944 C45.29516676 57.23769499 44.29681486 64.56087897 38.98046875 71.4296875 C31.92205559 77.16100232 25.86053443 79.73136717 16.6484375 79.4375 C9.39997567 78.37896246 3.75940619 74.69321327 -0.90625 69.1640625 C-4.83625296 62.46714157 -5.61783457 56.44519315 -5.671875 48.83984375 C-5.6988018 47.42517822 -5.6988018 47.42517822 -5.72627258 45.98193359 C-5.78005269 42.99711454 -5.81416714 40.0124524 -5.84765625 37.02734375 C-5.88085786 34.99216582 -5.91535012 32.9570085 -5.95117188 30.921875 C-6.03576041 25.95714507 -6.10272489 20.99245907 -6.16015625 16.02734375 C-9.13015625 16.02734375 -12.10015625 16.02734375 -15.16015625 16.02734375 C-16.49345654 18.69394432 -16.32175084 20.77623118 -16.36547852 23.76220703 C-16.38542374 24.96330109 -16.40536896 26.16439514 -16.42591858 27.40188599 C-16.45098732 29.35504227 -16.45098732 29.35504227 -16.4765625 31.34765625 C-16.4971325 32.69001913 -16.51812898 34.03237554 -16.53953552 35.37472534 C-16.59475156 38.90922813 -16.64416283 42.44378932 -16.69238281 45.97839355 C-16.74260129 49.58460697 -16.79828554 53.19073547 -16.85351562 56.796875 C-16.96109144 63.87362573 -17.06203264 70.95045473 -17.16015625 78.02734375 C-23.43015625 78.02734375 -29.70015625 78.02734375 -36.16015625 78.02734375 C-36.27362273 70.24668569 -36.36513751 62.4664889 -36.41921711 54.68522835 C-36.44518759 51.07108674 -36.48035034 47.45754593 -36.53735352 43.84375 C-36.59212925 40.34884713 -36.62167087 36.85451797 -36.63454247 33.3592186 C-36.64812524 31.39286096 -36.68708465 29.42673057 -36.72663879 27.46072388 C-36.72933174 18.75762397 -35.44840321 11.71283085 -29.41889954 5.12478638 C-21.30422216 -2.49915572 -10.25957744 -4.55281862 0 0 Z " fill="#292929" transform="translate(344.16015625,59.97265625)"/>
<path d="M0 0 C6.52679438 4.96833181 8.99707574 13.86108467 11.64453125 21.28515625 C12.047323 22.3924559 12.45011475 23.49975555 12.8651123 24.64060974 C14.14397406 28.16359756 15.40982009 31.69110888 16.67578125 35.21875 C17.52523981 37.56083786 18.37549325 39.90263758 19.2265625 42.24414062 C23.36700271 53.66576287 27.41037025 65.10538881 31.17578125 76.65625 C24.24578125 76.65625 17.31578125 76.65625 10.17578125 76.65625 C7.17578125 66.03125 7.17578125 66.03125 7.17578125 62.65625 C-4.04421875 62.98625 -15.26421875 63.31625 -26.82421875 63.65625 C-28.14421875 67.28625 -29.46421875 70.91625 -30.82421875 74.65625 C-31.15421875 75.31625 -31.48421875 75.97625 -31.82421875 76.65625 C-38.09421875 76.65625 -44.36421875 76.65625 -50.82421875 76.65625 C-50.11176751 73.09399378 -49.37697252 70.13276183 -48.16943359 66.76855469 C-47.83172943 65.8227655 -47.49402527 64.87697632 -47.14608765 63.90252686 C-46.77948029 62.88797424 -46.41287292 61.87342163 -46.03515625 60.828125 C-45.6536441 59.76571594 -45.27213196 58.70330688 -44.87905884 57.60870361 C-44.06875197 55.35536559 -43.25664304 53.1026749 -42.44287109 50.85058594 C-41.21943385 47.46223639 -40.00383417 44.07115186 -38.7890625 40.6796875 C-36.50559416 34.32421511 -34.17912501 27.98557328 -31.82421875 21.65625 C-31.49538696 20.76494385 -31.16655518 19.8736377 -30.82775879 18.95532227 C-29.94350094 16.58145566 -29.0343274 14.21916968 -28.11328125 11.859375 C-27.86581146 11.18944519 -27.61834167 10.51951538 -27.3633728 9.82928467 C-25.10265569 4.20039556 -21.80083937 1.73988444 -16.94921875 -1.65625 C-10.83408807 -3.63467463 -5.75367661 -2.27201855 0 0 Z " fill="#252525" transform="translate(436.82421875,60.34375)"/>
<path d="M0 0 C14.85 0 29.7 0 45 0 C45 4.95 45 9.9 45 15 C40.71 15 36.42 15 32 15 C32 30.51 32 46.02 32 62 C36.29 62 40.58 62 45 62 C45 66.95 45 71.9 45 77 C30.15 77 15.3 77 0 77 C0 72.05 0 67.1 0 62 C4.29 62 8.58 62 13 62 C13 46.49 13 30.98 13 15 C8.71 15 4.42 15 0 15 C0 10.05 0 5.1 0 0 Z " fill="#232323" transform="translate(261,60)"/>
<path d="M0 0 C5.87529418 3.25573627 8.7563121 8.2001242 11.6875 14.0625 C12.42700496 24.65803007 12.35893735 32.35296546 5.4375 40.8125 C-0.61533503 45.76481957 -5.72376754 47.78068908 -13.63671875 47.44140625 C-20.33439721 46.49297587 -24.94793831 43.25547852 -29.05859375 37.96875 C-33.34402033 31.45383358 -34.30059047 24.76960566 -33.3125 17.0625 C-31.19943964 9.81447577 -27.29681694 3.55867135 -20.6875 -0.3125 C-13.81120638 -3.37581126 -6.83503057 -2.96013354 0 0 Z " fill="#FBFBFB" transform="translate(94.3125,75.9375)"/>
<path d="M0 0 C19.86096257 0 19.86096257 0 25.51171875 5.4609375 C31.13552217 11.80987317 31.45422537 17.05100892 31.23828125 25.296875 C30.78903801 32.27855685 29.3148571 36.07116639 24.1875 40.875 C16.77996565 47.23276401 9.86905263 46 0 46 C0 30.82 0 15.64 0 0 Z " fill="#FDFDFD" transform="translate(212,76)"/>
<path d="M0 0 C4.021875 -0.0928125 4.021875 -0.0928125 8.125 -0.1875 C8.95789551 -0.21481201 9.79079102 -0.24212402 10.64892578 -0.27026367 C16.36429014 -0.33367681 20.43864654 0.78016033 24.875 4.625 C26.64592426 8.36361788 26.53632534 11.94132172 26 16 C24.34482663 19.88965742 22.86285808 21.43109334 19 23 C16.80175781 23.22705078 16.80175781 23.22705078 14.453125 23.1953125 C13.69161133 23.19031738 12.93009766 23.18532227 12.14550781 23.18017578 C10.71223145 23.15286377 10.71223145 23.15286377 9.25 23.125 C4.67125 23.063125 4.67125 23.063125 0 23 C0 15.41 0 7.82 0 0 Z " fill="#FBFBFB" transform="translate(145,75)"/>
<path d="M0 0 C0.99 0.33 1.98 0.66 3 1 C3.9664911 3.266255 4.73069073 5.40262036 5.4375 7.75 C5.64850342 8.41870117 5.85950684 9.08740234 6.0769043 9.77636719 C6.51265769 11.1630488 6.94301936 12.55143543 7.36816406 13.94140625 C7.96709481 15.89279113 8.58838287 17.83727296 9.2109375 19.78125 C12 28.56382979 12 28.56382979 12 32 C4.41 32 -3.18 32 -11 32 C-7.62061404 19.60891813 -7.62061404 19.60891813 -6.2109375 15.5859375 C-5.90929687 14.72355469 -5.60765625 13.86117187 -5.296875 12.97265625 C-4.99265625 12.11542969 -4.6884375 11.25820312 -4.375 10.375 C-4.06304687 9.47910156 -3.75109375 8.58320312 -3.4296875 7.66015625 C-1.13116584 1.13116584 -1.13116584 1.13116584 0 0 Z " fill="#F6F6F6" transform="translate(426,75)"/>
<path d="M0 0 C0.33 0 0.66 0 1 0 C1 20.46 1 40.92 1 62 C-8 62 -8 62 -10.2265625 59.953125 C-10.68804687 59.06109375 -11.14953125 58.1690625 -11.625 57.25 C-12.11226562 56.36828125 -12.59953125 55.4865625 -13.1015625 54.578125 C-14.09538713 51.72628042 -14.22495076 50.72397726 -13 48 C-11.51171875 46.17578125 -11.51171875 46.17578125 -9.6875 44.3125 C-6.4075206 40.72944242 -4.50152812 37.28430825 -2.7265625 32.78515625 C-2 31 -2 31 -1 30 C-0.84126045 27.78312006 -0.74866163 25.56144702 -0.68359375 23.33984375 C-0.66281265 22.67537735 -0.64203156 22.01091095 -0.62062073 21.3263092 C-0.55506342 19.19681457 -0.49621215 17.06719332 -0.4375 14.9375 C-0.39432061 13.49673153 -0.35070651 12.05597601 -0.30664062 10.61523438 C-0.19937607 7.0769596 -0.09812629 3.53854131 0 0 Z " fill="#F4F4F4" transform="translate(192,60)"/>
<path d="M0 0 C0 0.99 0 1.98 0 3 C-2.5 5.1875 -2.5 5.1875 -5 7 C-4.60196439 4.11424181 -4.20990931 3.17810487 -1.9375 1.25 C-1.298125 0.8375 -0.65875 0.425 0 0 Z " fill="#313131" transform="translate(58,66)"/>
</svg>
